{"title":"Another Year (2010) BRRip x264 aac ukr sub","uid":9447319,"size":944936549,"categoryP":"video","categoryS":"movies","magnet":"?xt=urn:btih:46a24d292f418c666ebd153f3e5cad46f500a9be&amp;dn=Another+Year+%282010%29+BRRip+x264+aac+ukr+sub&amp;tr=udp%3A%2F%2Ftracker.openbittorrent.com%3A80&amp;tr=udp%3A%2F%2Fopen.demonii.com%3A1337&amp;tr=udp%3A%2F%2Ftracker.coppersurfer.tk%3A6969&amp;tr=udp%3A%2F%2Fexodus.desync.com%3A6969","seeders":1,"leechers":0,"uploader":"orysia","files":-1,"time":1389114100,"description":"Comedy | Drama\n\nDirector &amp; Writer: Mike Leigh\nStars: Jim Broadbent, Ruth Sheen, Lesley Manville\n\nA married couple who have managed to remain blissfully happy into their autumn years, are surrounded over the course of the four seasons of one average year by friends, colleagues, and family who all seem to suffer some degree of unhappiness.\n\nFormat                           : MPEG-4\nFormat profile                   : Base Media\nCodec ID                         : isom\nFile size                        : 901 MiB\nDuration                         : 2h 9mn\nOverall bit rate                 : 971 Kbps\nMovie name                       : Another Year*2010 /antusyrzhuk\nGenre                            : Comedy\nEncoded date                     : 2010\nTagged date                      : UTC 2013-12-25 07:51:17\nWriting application              : Yamb 2.0.0.8 [http://yamb.unite-video.com]\nComment                          : http://cinemasterpiece(dot)wordpress(dot)com/\n\nVideo\nID                               : 1\nFormat                           : AVC\nFormat/Info                      : Advanced Video Codec\nFormat profile                   : &lt;a class=&quot;__cf_email__&quot; href=&quot;/cdn-cgi/l/email-protection&quot; data-cfemail=&quot;fdb09c9493bdb1ced3cc&quot;&gt;[email&amp;#160;protected]&lt;/a&gt;&lt;script cf-hash='f9e31' type=&quot;text/javascript&quot;&gt;\n/* &lt;![CDATA[ */!function(){try{var t=&quot;currentScript&quot;in document?document.currentScript:function(){for(var t=document.getElementsByTagName(&quot;script&quot;),e=t.length;e--;)if(t[e].getAttribute(&quot;cf-hash&quot;))return t[e]}();if(t&amp;&amp;t.previousSibling){var e,r,n,i,c=t.previousSibling,a=c.getAttribute(&quot;data-cfemail&quot;);if(a){for(e=&quot;&quot;,r=parseInt(a.substr(0,2),16),n=2;a.length-n;n+=2)i=parseInt(a.substr(n,2),16)^r,e+=String.fromCharCode(i);e=document.createTextNode(e),c.parentNode.replaceChild(e,c)}}}catch(u){}}();/* ]]&gt; */&lt;/script&gt;\nFormat settings, CABAC           : Yes\nFormat settings, ReFrames        : 6 frames\nFormat settings, GOP             : M=3, N=32\nCodec ID                         : avc1\nCodec ID/Info                    : Advanced Video Coding\nDuration                         : 2h 9mn\nBit rate mode                    : Variable\nBit rate                         : 895 Kbps\nMaximum bit rate                 : 5 020 Kbps\nWidth                            : 800 pixels\nHeight                           : 450 pixels\nDisplay aspect ratio             : 16:9\nFrame rate mode                  : Constant\nFrame rate                       : 23.976 fps\nColor space                      : YUV\nChroma subsampling               : 4:2:0\nBit depth                        : 8 bits\nScan type                        : Progressive\nBits/(Pixel*Frame)               : 0.104\nStream size                      : 831 MiB (92%)\nWriting library                  : x264 core 138 r2358 9e941d1\nEncoding settings                : cabac=1 / ref=6 / deblock=1:-1:-1 / analyse=0x1:0x131 / me=umh / subme=9 / psy=1 / psy_rd=1.00:0.00 / mixed_ref=1 / me_range=16 / chroma_me=1 / trellis=2 / 8x8dct=0 / cqm=0 / deadzone=21,11 / fast_pskip=1 / chroma_qp_offset=-2 / threads=3 / lookahead_threads=1 / sliced_threads=0 / nr=0 / decimate=1 / interlaced=0 / bluray_compat=0 / constrained_intra=0 / bframes=3 / b_pyramid=2 / b_adapt=2 / b_bias=0 / direct=3 / weightb=1 / open_gop=0 / weightp=2 / keyint=240 / keyint_min=23 / scenecut=30 / intra_refresh=0 / rc_lookahead=60 / rc=2pass / mbtree=1 / bitrate=895 / ratetol=1.0 / qcomp=0.60 / qpmin=0 / qpmax=69 / qpstep=4 / cplxblur=20.0 / qblur=0.5 / vbv_maxrate=14000 / vbv_bufsize=14000 / nal_hrd=none / ip_ratio=1.40 / aq=1:1.00\nEncoded date                     : UTC 2013-12-25 07:51:17\nTagged date                      : UTC 2013-12-25 07:51:56\n\nAudio\nID                               : 2\nFormat                           : AAC\nFormat/Info                      : Advanced Audio Codec\nFormat version                   : Version 4\nFormat profile                   : LC\nFormat settings, SBR             : No\nCodec ID                         : 40\nDuration                         : 2h 9mn\nBit rate mode                    : Variable\nBit rate                         : 72.0 Kbps\nMaximum bit rate                 : 134 Kbps\nChannel(s)                       : 2 channels\nChannel positions                : Front: L R\nSampling rate                    : 48.0 KHz\nStream size                      : 66.7 MiB (7%)\nLanguage                         : English\nEncoded date                     : UTC 2013-12-25 07:51:53\nTagged date                      : UTC 2013-12-25 07:51:56\n\nUkrainian subtitles are HARDCODED\n\nScreenshots: &lt;a href=&quot;\nhttp://img853.imageshack.us/img853/4076/u21e.png&quot; rel=&quot;nofollow&quot; target=&quot;_NEW&quot;&gt;\nhttp://img853.imageshack.us/img853/4076/u21e.png&lt;/a&gt; &lt;a href=&quot;\nhttp://img856.imageshack.us/img856/9837/kaa2.png&quot; rel=&quot;nofollow&quot; target=&quot;_NEW&quot;&gt;\nhttp://img856.imageshack.us/img856/9837/kaa2.png&lt;/a&gt; &lt;a href=&quot;\nhttp://img268.imageshack.us/img268/8338/h61l.png&quot; rel=&quot;nofollow&quot; target=&quot;_NEW&quot;&gt;\nhttp://img268.imageshack.us/img268/8338/h61l.png&lt;/a&gt; &lt;a href=&quot;\nhttp://img69.imageshack.us/img69/8154/vind.png&quot; rel=&quot;nofollow&quot; target=&quot;_NEW&quot;&gt;\nhttp://img69.imageshack.us/img69/8154/vind.png&lt;/a&gt; &lt;a href=&quot;\nhttp://img716.imageshack.us/img716/4240/k1l8.png&quot; rel=&quot;nofollow&quot; target=&quot;_NEW&quot;&gt;\nhttp://img716.imageshack.us/img716/4240/k1l8.png&lt;/a&gt;\n\nJust in case. English subtitles: http://subscene.com/subtitles/another-year/english/469069","torrent":{"xt":"urn:btih:46a24d292f418c666ebd153f3e5cad46f500a9be","amp;dn":"Another+Year+%282010%29+BRRip+x264+aac+ukr+sub","amp;tr":["udp%3A%2F%2Ftracker.openbittorrent.com%3A80","udp%3A%2F%2Fopen.demonii.com%3A1337","udp%3A%2F%2Ftracker.coppersurfer.tk%3A6969","udp%3A%2F%2Fexodus.desync.com%3A6969"],"infoHash":"46a24d292f418c666ebd153f3e5cad46f500a9be","infoHashBuffer":{"type":"Buffer","data":[70,162,77,41,47,65,140,102,110,189,21,63,62,92,173,70,245,0,169,190]},"announce":[],"urlList":[]}}